<?xml version="1.0"?>
<!-- Generated by SVGo and Plotinum VG -->
<svg width="8in" height="6in"
	xmlns="http://www.w3.org/2000/svg"
	xmlns:xlink="http://www.w3.org/1999/xlink">
<g transform="scale(1, -1) translate(0, -540)">
<path d="M0,0L720,0L720,540L0,540Z" style="fill:#FFFFFF" />
<text x="130.46" y="-525.56" transform="scale(1, -1)"
	style="font-family:Times;font-weight:normal;font-style:normal;font-size:12pt">systemmutex,spinhlemutex,spinrtmnopause,spinrtmwithlibrary Performance</text>
<text x="340.84" y="-4.8267" transform="scale(1, -1)"
	style="font-family:Times;font-weight:normal;font-style:normal;font-size:12pt">Number of Bins</text>
<g transform="rotate(-90)">
<text x="-69.762" y="-51.222" transform="scale(1, -1)"
	style="font-family:Times;font-weight:normal;font-style:normal;font-size:8.5039pt">1</text>
</g>
<g transform="rotate(-90)">
<text x="-69.762" y="-73.823" transform="scale(1, -1)"
	style="font-family:Times;font-weight:normal;font-style:normal;font-size:8.5039pt">2</text>
</g>
<g transform="rotate(-90)">
<text x="-69.762" y="-96.423" transform="scale(1, -1)"
	style="font-family:Times;font-weight:normal;font-style:normal;font-size:8.5039pt">4</text>
</g>
<g transform="rotate(-90)">
<text x="-69.762" y="-119.02" transform="scale(1, -1)"
	style="font-family:Times;font-weight:normal;font-style:normal;font-size:8.5039pt">8</text>
</g>
<g transform="rotate(-90)">
<text x="-72.42" y="-141.62" transform="scale(1, -1)"
	style="font-family:Times;font-weight:normal;font-style:normal;font-size:8.5039pt">16</text>
</g>
<g transform="rotate(-90)">
<text x="-72.42" y="-164.23" transform="scale(1, -1)"
	style="font-family:Times;font-weight:normal;font-style:normal;font-size:8.5039pt">32</text>
</g>
<g transform="rotate(-90)">
<text x="-72.42" y="-186.83" transform="scale(1, -1)"
	style="font-family:Times;font-weight:normal;font-style:normal;font-size:8.5039pt">64</text>
</g>
<g transform="rotate(-90)">
<text x="-75.077" y="-209.43" transform="scale(1, -1)"
	style="font-family:Times;font-weight:normal;font-style:normal;font-size:8.5039pt">128</text>
</g>
<g transform="rotate(-90)">
<text x="-75.077" y="-232.03" transform="scale(1, -1)"
	style="font-family:Times;font-weight:normal;font-style:normal;font-size:8.5039pt">256</text>
</g>
<g transform="rotate(-90)">
<text x="-75.077" y="-254.63" transform="scale(1, -1)"
	style="font-family:Times;font-weight:normal;font-style:normal;font-size:8.5039pt">512</text>
</g>
<g transform="rotate(-90)">
<text x="-77.735" y="-277.23" transform="scale(1, -1)"
	style="font-family:Times;font-weight:normal;font-style:normal;font-size:8.5039pt">1024</text>
</g>
<g transform="rotate(-90)">
<text x="-77.735" y="-299.83" transform="scale(1, -1)"
	style="font-family:Times;font-weight:normal;font-style:normal;font-size:8.5039pt">2048</text>
</g>
<g transform="rotate(-90)">
<text x="-77.735" y="-322.43" transform="scale(1, -1)"
	style="font-family:Times;font-weight:normal;font-style:normal;font-size:8.5039pt">4096</text>
</g>
<g transform="rotate(-90)">
<text x="-77.735" y="-345.03" transform="scale(1, -1)"
	style="font-family:Times;font-weight:normal;font-style:normal;font-size:8.5039pt">8192</text>
</g>
<g transform="rotate(-90)">
<text x="-80.392" y="-367.63" transform="scale(1, -1)"
	style="font-family:Times;font-weight:normal;font-style:normal;font-size:8.5039pt">16384</text>
</g>
<g transform="rotate(-90)">
<text x="-80.392" y="-390.23" transform="scale(1, -1)"
	style="font-family:Times;font-weight:normal;font-style:normal;font-size:8.5039pt">32768</text>
</g>
<g transform="rotate(-90)">
<text x="-80.392" y="-412.83" transform="scale(1, -1)"
	style="font-family:Times;font-weight:normal;font-style:normal;font-size:8.5039pt">65536</text>
</g>
<g transform="rotate(-90)">
<text x="-83.05" y="-435.43" transform="scale(1, -1)"
	style="font-family:Times;font-weight:normal;font-style:normal;font-size:8.5039pt">131072</text>
</g>
<g transform="rotate(-90)">
<text x="-83.05" y="-458.03" transform="scale(1, -1)"
	style="font-family:Times;font-weight:normal;font-style:normal;font-size:8.5039pt">262144</text>
</g>
<g transform="rotate(-90)">
<text x="-83.05" y="-480.63" transform="scale(1, -1)"
	style="font-family:Times;font-weight:normal;font-style:normal;font-size:8.5039pt">524288</text>
</g>
<g transform="rotate(-90)">
<text x="-85.707" y="-503.23" transform="scale(1, -1)"
	style="font-family:Times;font-weight:normal;font-style:normal;font-size:8.5039pt">1048576</text>
</g>
<g transform="rotate(-90)">
<text x="-85.707" y="-525.83" transform="scale(1, -1)"
	style="font-family:Times;font-weight:normal;font-style:normal;font-size:8.5039pt">2097152</text>
</g>
<g transform="rotate(-90)">
<text x="-85.707" y="-548.44" transform="scale(1, -1)"
	style="font-family:Times;font-weight:normal;font-style:normal;font-size:8.5039pt">4194304</text>
</g>
<g transform="rotate(-90)">
<text x="-85.707" y="-571.04" transform="scale(1, -1)"
	style="font-family:Times;font-weight:normal;font-style:normal;font-size:8.5039pt">8388608</text>
</g>
<g transform="rotate(-90)">
<text x="-88.365" y="-593.64" transform="scale(1, -1)"
	style="font-family:Times;font-weight:normal;font-style:normal;font-size:8.5039pt">16777216</text>
</g>
<g transform="rotate(-90)">
<text x="-88.365" y="-616.24" transform="scale(1, -1)"
	style="font-family:Times;font-weight:normal;font-style:normal;font-size:8.5039pt">33554432</text>
</g>
<g transform="rotate(-90)">
<text x="-88.365" y="-638.84" transform="scale(1, -1)"
	style="font-family:Times;font-weight:normal;font-style:normal;font-size:8.5039pt">67108864</text>
</g>
<g transform="rotate(-90)">
<text x="-91.022" y="-661.44" transform="scale(1, -1)"
	style="font-family:Times;font-weight:normal;font-style:normal;font-size:8.5039pt">134217728</text>
</g>
<g transform="rotate(-90)">
<text x="-91.022" y="-684.04" transform="scale(1, -1)"
	style="font-family:Times;font-weight:normal;font-style:normal;font-size:8.5039pt">268435456</text>
</g>
<g transform="rotate(-90)">
<text x="-91.022" y="-706.64" transform="scale(1, -1)"
	style="font-family:Times;font-weight:normal;font-style:normal;font-size:8.5039pt">536870912</text>
</g>
<path d="M61.458,67.105L61.458,77.105" style="fill:none;stroke:#000000;stroke-width:0.625" />
<path d="M84.058,67.105L84.058,77.105" style="fill:none;stroke:#000000;stroke-width:0.625" />
<path d="M106.66,67.105L106.66,77.105" style="fill:none;stroke:#000000;stroke-width:0.625" />
<path d="M129.26,67.105L129.26,77.105" style="fill:none;stroke:#000000;stroke-width:0.625" />
<path d="M151.86,67.105L151.86,77.105" style="fill:none;stroke:#000000;stroke-width:0.625" />
<path d="M174.46,67.105L174.46,77.105" style="fill:none;stroke:#000000;stroke-width:0.625" />
<path d="M197.06,67.105L197.06,77.105" style="fill:none;stroke:#000000;stroke-width:0.625" />
<path d="M219.66,67.105L219.66,77.105" style="fill:none;stroke:#000000;stroke-width:0.625" />
<path d="M242.26,67.105L242.26,77.105" style="fill:none;stroke:#000000;stroke-width:0.625" />
<path d="M264.86,67.105L264.86,77.105" style="fill:none;stroke:#000000;stroke-width:0.625" />
<path d="M287.46,67.105L287.46,77.105" style="fill:none;stroke:#000000;stroke-width:0.625" />
<path d="M310.06,67.105L310.06,77.105" style="fill:none;stroke:#000000;stroke-width:0.625" />
<path d="M332.66,67.105L332.66,77.105" style="fill:none;stroke:#000000;stroke-width:0.625" />
<path d="M355.27,67.105L355.27,77.105" style="fill:none;stroke:#000000;stroke-width:0.625" />
<path d="M377.87,67.105L377.87,77.105" style="fill:none;stroke:#000000;stroke-width:0.625" />
<path d="M400.47,67.105L400.47,77.105" style="fill:none;stroke:#000000;stroke-width:0.625" />
<path d="M423.07,67.105L423.07,77.105" style="fill:none;stroke:#000000;stroke-width:0.625" />
<path d="M445.67,67.105L445.67,77.105" style="fill:none;stroke:#000000;stroke-width:0.625" />
<path d="M468.27,67.105L468.27,77.105" style="fill:none;stroke:#000000;stroke-width:0.625" />
<path d="M490.87,67.105L490.87,77.105" style="fill:none;stroke:#000000;stroke-width:0.625" />
<path d="M513.47,67.105L513.47,77.105" style="fill:none;stroke:#000000;stroke-width:0.625" />
<path d="M536.07,67.105L536.07,77.105" style="fill:none;stroke:#000000;stroke-width:0.625" />
<path d="M558.67,67.105L558.67,77.105" style="fill:none;stroke:#000000;stroke-width:0.625" />
<path d="M581.27,67.105L581.27,77.105" style="fill:none;stroke:#000000;stroke-width:0.625" />
<path d="M603.87,67.105L603.87,77.105" style="fill:none;stroke:#000000;stroke-width:0.625" />
<path d="M626.47,67.105L626.47,77.105" style="fill:none;stroke:#000000;stroke-width:0.625" />
<path d="M649.07,67.105L649.07,77.105" style="fill:none;stroke:#000000;stroke-width:0.625" />
<path d="M671.67,67.105L671.67,77.105" style="fill:none;stroke:#000000;stroke-width:0.625" />
<path d="M694.27,67.105L694.27,77.105" style="fill:none;stroke:#000000;stroke-width:0.625" />
<path d="M716.88,67.105L716.88,77.105" style="fill:none;stroke:#000000;stroke-width:0.625" />
<path d="M61.458,77.105L716.88,77.105" style="fill:none;stroke:#000000;stroke-width:0.625" />
<g transform="rotate(90)">
<text x="262.83" y="14.443" transform="scale(1, -1)"
	style="font-family:Times;font-weight:normal;font-style:normal;font-size:12pt">Runtime (ns)</text>
</g>
<text x="25.52" y="-124.11" transform="scale(1, -1)"
	style="font-family:Times;font-weight:normal;font-style:normal;font-size:10pt">40</text>
<text x="19.27" y="-291.42" transform="scale(1, -1)"
	style="font-family:Times;font-weight:normal;font-style:normal;font-size:10pt">160</text>
<text x="19.27" y="-458.72" transform="scale(1, -1)"
	style="font-family:Times;font-weight:normal;font-style:normal;font-size:10pt">280</text>
<path d="M41.145,130.01L51.145,130.01" style="fill:none;stroke:#000000;stroke-width:0.625" />
<path d="M41.145,297.32L51.145,297.32" style="fill:none;stroke:#000000;stroke-width:0.625" />
<path d="M41.145,464.62L51.145,464.62" style="fill:none;stroke:#000000;stroke-width:0.625" />
<path d="M46.145,213.67L51.145,213.67" style="fill:none;stroke:#000000;stroke-width:0.625" />
<path d="M46.145,380.97L51.145,380.97" style="fill:none;stroke:#000000;stroke-width:0.625" />
<path d="M51.145,86.792L51.145,517.6" style="fill:none;stroke:#000000;stroke-width:0.625" />
<path d="M61.458,86.792L61.458,517.6" style="fill:none;stroke:#808080;stroke-width:0.3125" />
<path d="M84.058,86.792L84.058,517.6" style="fill:none;stroke:#808080;stroke-width:0.3125" />
<path d="M106.66,86.792L106.66,517.6" style="fill:none;stroke:#808080;stroke-width:0.3125" />
<path d="M129.26,86.792L129.26,517.6" style="fill:none;stroke:#808080;stroke-width:0.3125" />
<path d="M151.86,86.792L151.86,517.6" style="fill:none;stroke:#808080;stroke-width:0.3125" />
<path d="M174.46,86.792L174.46,517.6" style="fill:none;stroke:#808080;stroke-width:0.3125" />
<path d="M197.06,86.792L197.06,517.6" style="fill:none;stroke:#808080;stroke-width:0.3125" />
<path d="M219.66,86.792L219.66,517.6" style="fill:none;stroke:#808080;stroke-width:0.3125" />
<path d="M242.26,86.792L242.26,517.6" style="fill:none;stroke:#808080;stroke-width:0.3125" />
<path d="M264.86,86.792L264.86,517.6" style="fill:none;stroke:#808080;stroke-width:0.3125" />
<path d="M287.46,86.792L287.46,517.6" style="fill:none;stroke:#808080;stroke-width:0.3125" />
<path d="M310.06,86.792L310.06,517.6" style="fill:none;stroke:#808080;stroke-width:0.3125" />
<path d="M332.66,86.792L332.66,517.6" style="fill:none;stroke:#808080;stroke-width:0.3125" />
<path d="M355.27,86.792L355.27,517.6" style="fill:none;stroke:#808080;stroke-width:0.3125" />
<path d="M377.87,86.792L377.87,517.6" style="fill:none;stroke:#808080;stroke-width:0.3125" />
<path d="M400.47,86.792L400.47,517.6" style="fill:none;stroke:#808080;stroke-width:0.3125" />
<path d="M423.07,86.792L423.07,517.6" style="fill:none;stroke:#808080;stroke-width:0.3125" />
<path d="M445.67,86.792L445.67,517.6" style="fill:none;stroke:#808080;stroke-width:0.3125" />
<path d="M468.27,86.792L468.27,517.6" style="fill:none;stroke:#808080;stroke-width:0.3125" />
<path d="M490.87,86.792L490.87,517.6" style="fill:none;stroke:#808080;stroke-width:0.3125" />
<path d="M513.47,86.792L513.47,517.6" style="fill:none;stroke:#808080;stroke-width:0.3125" />
<path d="M536.07,86.792L536.07,517.6" style="fill:none;stroke:#808080;stroke-width:0.3125" />
<path d="M558.67,86.792L558.67,517.6" style="fill:none;stroke:#808080;stroke-width:0.3125" />
<path d="M581.27,86.792L581.27,517.6" style="fill:none;stroke:#808080;stroke-width:0.3125" />
<path d="M603.87,86.792L603.87,517.6" style="fill:none;stroke:#808080;stroke-width:0.3125" />
<path d="M626.47,86.792L626.47,517.6" style="fill:none;stroke:#808080;stroke-width:0.3125" />
<path d="M649.07,86.792L649.07,517.6" style="fill:none;stroke:#808080;stroke-width:0.3125" />
<path d="M671.67,86.792L671.67,517.6" style="fill:none;stroke:#808080;stroke-width:0.3125" />
<path d="M694.27,86.792L694.27,517.6" style="fill:none;stroke:#808080;stroke-width:0.3125" />
<path d="M716.88,86.792L716.88,517.6" style="fill:none;stroke:#808080;stroke-width:0.3125" />
<path d="M61.458,130.01L716.88,130.01" style="fill:none;stroke:#808080;stroke-width:0.3125" />
<path d="M61.458,297.32L716.88,297.32" style="fill:none;stroke:#808080;stroke-width:0.3125" />
<path d="M61.458,464.62L716.88,464.62" style="fill:none;stroke:#808080;stroke-width:0.3125" />
<path d="M61.458,205.3L84.058,266.65L106.66,263.86L129.26,251.31L151.86,247.13L174.46,275.01L197.06,254.1L219.66,269.43L242.26,270.83L264.86,297.32L287.46,295.92L310.06,305.68L332.66,325.2L355.27,517.6L377.87,510.63L400.47,367.03L423.07,321.02L445.67,371.21L468.27,323.81L490.87,383.76L513.47,353.09L536.07,351.69L558.67,421.4L581.27,454.87L603.87,422.8L626.47,354.48L649.07,378.18L671.67,421.4L694.27,386.55L716.88,361.45" style="fill:none;stroke:#F15A60;stroke-width:1.25" />
<path d="M64.583,205.3A3.125,3.125 0 1 1 58.333,205.3A3.125,3.125 0 1 1 64.583,205.3Z" style="fill:none;stroke:#F15A60;stroke-width:0.625" />
<path d="M87.183,266.65A3.125,3.125 0 1 1 80.933,266.65A3.125,3.125 0 1 1 87.183,266.65Z" style="fill:none;stroke:#F15A60;stroke-width:0.625" />
<path d="M109.78,263.86A3.125,3.125 0 1 1 103.53,263.86A3.125,3.125 0 1 1 109.78,263.86Z" style="fill:none;stroke:#F15A60;stroke-width:0.625" />
<path d="M132.38,251.31A3.125,3.125 0 1 1 126.13,251.31A3.125,3.125 0 1 1 132.38,251.31Z" style="fill:none;stroke:#F15A60;stroke-width:0.625" />
<path d="M154.98,247.13A3.125,3.125 0 1 1 148.73,247.13A3.125,3.125 0 1 1 154.98,247.13Z" style="fill:none;stroke:#F15A60;stroke-width:0.625" />
<path d="M177.59,275.01A3.125,3.125 0 1 1 171.34,275.01A3.125,3.125 0 1 1 177.59,275.01Z" style="fill:none;stroke:#F15A60;stroke-width:0.625" />
<path d="M200.19,254.1A3.125,3.125 0 1 1 193.94,254.1A3.125,3.125 0 1 1 200.19,254.1Z" style="fill:none;stroke:#F15A60;stroke-width:0.625" />
<path d="M222.79,269.43L222.79,269.43A3.125,3.125 0 1 1 216.54,269.43A3.125,3.125 0 1 1 222.79,269.43Z" style="fill:none;stroke:#F15A60;stroke-width:0.625" />
<path d="M245.39,270.83L245.39,270.83A3.125,3.125 0 1 1 239.14,270.83A3.125,3.125 0 1 1 245.39,270.83Z" style="fill:none;stroke:#F15A60;stroke-width:0.625" />
<path d="M267.99,297.32A3.125,3.125 0 1 1 261.74,297.32A3.125,3.125 0 1 1 267.99,297.32Z" style="fill:none;stroke:#F15A60;stroke-width:0.625" />
<path d="M290.59,295.92L290.59,295.92A3.125,3.125 0 1 1 284.34,295.92A3.125,3.125 0 1 1 290.59,295.92Z" style="fill:none;stroke:#F15A60;stroke-width:0.625" />
<path d="M313.19,305.68A3.125,3.125 0 1 1 306.94,305.68A3.125,3.125 0 1 1 313.19,305.68Z" style="fill:none;stroke:#F15A60;stroke-width:0.625" />
<path d="M335.79,325.2A3.125,3.125 0 1 1 329.54,325.2A3.125,3.125 0 1 1 335.79,325.2Z" style="fill:none;stroke:#F15A60;stroke-width:0.625" />
<path d="M358.39,517.6A3.125,3.125 0 1 1 352.14,517.6A3.125,3.125 0 1 1 358.39,517.6Z" style="fill:none;stroke:#F15A60;stroke-width:0.625" />
<path d="M380.99,510.63L380.99,510.63A3.125,3.125 0 1 1 374.74,510.63A3.125,3.125 0 1 1 380.99,510.63Z" style="fill:none;stroke:#F15A60;stroke-width:0.625" />
<path d="M403.59,367.03A3.125,3.125 0 1 1 397.34,367.03A3.125,3.125 0 1 1 403.59,367.03Z" style="fill:none;stroke:#F15A60;stroke-width:0.625" />
<path d="M426.19,321.02L426.19,321.02A3.125,3.125 0 1 1 419.94,321.02A3.125,3.125 0 1 1 426.19,321.02Z" style="fill:none;stroke:#F15A60;stroke-width:0.625" />
<path d="M448.79,371.21A3.125,3.125 0 1 1 442.54,371.21A3.125,3.125 0 1 1 448.79,371.21Z" style="fill:none;stroke:#F15A60;stroke-width:0.625" />
<path d="M471.39,323.81A3.125,3.125 0 1 1 465.14,323.81A3.125,3.125 0 1 1 471.39,323.81Z" style="fill:none;stroke:#F15A60;stroke-width:0.625" />
<path d="M493.99,383.76A3.125,3.125 0 1 1 487.74,383.76A3.125,3.125 0 1 1 493.99,383.76Z" style="fill:none;stroke:#F15A60;stroke-width:0.625" />
<path d="M516.59,353.09A3.125,3.125 0 1 1 510.34,353.09A3.125,3.125 0 1 1 516.59,353.09Z" style="fill:none;stroke:#F15A60;stroke-width:0.625" />
<path d="M539.2,351.69A3.125,3.125 0 1 1 532.95,351.69A3.125,3.125 0 1 1 539.2,351.69Z" style="fill:none;stroke:#F15A60;stroke-width:0.625" />
<path d="M561.8,421.4A3.125,3.125 0 1 1 555.55,421.4A3.125,3.125 0 1 1 561.8,421.4Z" style="fill:none;stroke:#F15A60;stroke-width:0.625" />
<path d="M584.4,454.87A3.125,3.125 0 1 1 578.15,454.87A3.125,3.125 0 1 1 584.4,454.87Z" style="fill:none;stroke:#F15A60;stroke-width:0.625" />
<path d="M607,422.8A3.125,3.125 0 1 1 600.75,422.8A3.125,3.125 0 1 1 607,422.8Z" style="fill:none;stroke:#F15A60;stroke-width:0.625" />
<path d="M629.6,354.48A3.125,3.125 0 1 1 623.35,354.48A3.125,3.125 0 1 1 629.6,354.48Z" style="fill:none;stroke:#F15A60;stroke-width:0.625" />
<path d="M652.2,378.18A3.125,3.125 0 1 1 645.95,378.18A3.125,3.125 0 1 1 652.2,378.18Z" style="fill:none;stroke:#F15A60;stroke-width:0.625" />
<path d="M674.8,421.4A3.125,3.125 0 1 1 668.55,421.4A3.125,3.125 0 1 1 674.8,421.4Z" style="fill:none;stroke:#F15A60;stroke-width:0.625" />
<path d="M697.4,386.55L697.4,386.55A3.125,3.125 0 1 1 691.15,386.55A3.125,3.125 0 1 1 697.4,386.55Z" style="fill:none;stroke:#F15A60;stroke-width:0.625" />
<path d="M720,361.45A3.125,3.125 0 1 1 713.75,361.45A3.125,3.125 0 1 1 720,361.45Z" style="fill:none;stroke:#F15A60;stroke-width:0.625" />
<path d="M61.458,326.6L84.058,323.81L106.66,322.41L129.26,325.2L151.86,323.81L174.46,290.35L197.06,247.13L219.66,213.67L242.26,194.15L264.86,173.23L287.46,150.93L310.06,130.01L332.66,116.07L355.27,106.31L377.87,100.73L400.47,99.34L423.07,97.946L445.67,97.946L468.27,96.552L490.87,96.552L513.47,95.157L536.07,99.34L558.67,111.89L581.27,114.68L603.87,124.44L626.47,121.65L649.07,116.07L671.67,118.86L694.27,116.07L716.88,117.46" style="fill:none;stroke:#7AC36A;stroke-width:1.25;stroke-dasharray:7.5,2.5" />
<path d="M58.79,323.93L64.125,323.93L64.125,329.26L58.79,329.26Z" style="fill:none;stroke:#7AC36A;stroke-width:0.625" />
<path d="M81.391,321.14L86.725,321.14L86.725,326.48L81.391,326.48Z" style="fill:none;stroke:#7AC36A;stroke-width:0.625" />
<path d="M103.99,319.75L109.33,319.75L109.33,325.08L103.99,325.08Z" style="fill:none;stroke:#7AC36A;stroke-width:0.625" />
<path d="M126.59,322.54L131.93,322.54L131.93,327.87L126.59,327.87Z" style="fill:none;stroke:#7AC36A;stroke-width:0.625" />
<path d="M149.19,321.14L154.53,321.14L154.53,326.48L149.19,326.48Z" style="fill:none;stroke:#7AC36A;stroke-width:0.625" />
<path d="M171.79,287.68L177.13,287.68L177.13,293.02L171.79,293.02Z" style="fill:none;stroke:#7AC36A;stroke-width:0.625" />
<path d="M194.39,244.46L199.73,244.46L199.73,249.79L194.39,249.79Z" style="fill:none;stroke:#7AC36A;stroke-width:0.625" />
<path d="M216.99,211L222.33,211L222.33,216.33L216.99,216.33Z" style="fill:none;stroke:#7AC36A;stroke-width:0.625" />
<path d="M239.59,191.48L244.93,191.48L244.93,196.81L239.59,196.81Z" style="fill:none;stroke:#7AC36A;stroke-width:0.625" />
<path d="M262.2,170.57L267.53,170.57L267.53,175.9L262.2,175.9Z" style="fill:none;stroke:#7AC36A;stroke-width:0.625" />
<path d="M284.8,148.26L290.13,148.26L290.13,153.59L284.8,153.59Z" style="fill:none;stroke:#7AC36A;stroke-width:0.625" />
<path d="M307.4,127.35L312.73,127.35L312.73,132.68L307.4,132.68Z" style="fill:none;stroke:#7AC36A;stroke-width:0.625" />
<path d="M330,113.4L335.33,113.4L335.33,118.74L330,118.74Z" style="fill:none;stroke:#7AC36A;stroke-width:0.625" />
<path d="M352.6,103.64L357.93,103.64L357.93,108.98L352.6,108.98Z" style="fill:none;stroke:#7AC36A;stroke-width:0.625" />
<path d="M375.2,98.067L380.53,98.067L380.53,103.4L375.2,103.4Z" style="fill:none;stroke:#7AC36A;stroke-width:0.625" />
<path d="M397.8,96.673L403.13,96.673L403.13,102.01L397.8,102.01Z" style="fill:none;stroke:#7AC36A;stroke-width:0.625" />
<path d="M420.4,95.279L425.73,95.279L425.73,100.61L420.4,100.61Z" style="fill:none;stroke:#7AC36A;stroke-width:0.625" />
<path d="M443,95.279L448.34,95.279L448.34,100.61L443,100.61Z" style="fill:none;stroke:#7AC36A;stroke-width:0.625" />
<path d="M465.6,93.884L470.94,93.884L470.94,99.219L465.6,99.219Z" style="fill:none;stroke:#7AC36A;stroke-width:0.625" />
<path d="M488.2,93.884L493.54,93.884L493.54,99.219L488.2,99.219Z" style="fill:none;stroke:#7AC36A;stroke-width:0.625" />
<path d="M510.8,92.49L516.14,92.49L516.14,97.825L510.8,97.825Z" style="fill:none;stroke:#7AC36A;stroke-width:0.625" />
<path d="M533.4,96.673L538.74,96.673L538.74,102.01L533.4,102.01Z" style="fill:none;stroke:#7AC36A;stroke-width:0.625" />
<path d="M556,109.22L561.34,109.22L561.34,114.56L556,114.56Z" style="fill:none;stroke:#7AC36A;stroke-width:0.625" />
<path d="M578.6,112.01L583.94,112.01L583.94,117.34L578.6,117.34Z" style="fill:none;stroke:#7AC36A;stroke-width:0.625" />
<path d="M601.2,121.77L606.54,121.77L606.54,127.1L601.2,127.1Z" style="fill:none;stroke:#7AC36A;stroke-width:0.625" />
<path d="M623.81,118.98L629.14,118.98L629.14,124.31L623.81,124.31Z" style="fill:none;stroke:#7AC36A;stroke-width:0.625" />
<path d="M646.41,113.4L651.74,113.4L651.74,118.74L646.41,118.74Z" style="fill:none;stroke:#7AC36A;stroke-width:0.625" />
<path d="M669.01,116.19L674.34,116.19L674.34,121.53L669.01,121.53Z" style="fill:none;stroke:#7AC36A;stroke-width:0.625" />
<path d="M691.61,113.4L696.94,113.4L696.94,118.74L691.61,118.74Z" style="fill:none;stroke:#7AC36A;stroke-width:0.625" />
<path d="M714.21,114.8L719.54,114.8L719.54,120.13L714.21,120.13Z" style="fill:none;stroke:#7AC36A;stroke-width:0.625" />
<path d="M61.458,201.12L84.058,206.69L106.66,212.27L129.26,198.33L151.86,206.69L174.46,178.81L197.06,142.56L219.66,123.04L242.26,116.07L264.86,109.1L287.46,109.1L310.06,100.73L332.66,96.552L355.27,92.369L377.87,88.186L400.47,88.186L423.07,89.581L445.67,90.975L468.27,88.186L490.87,88.186L513.47,86.792L536.07,90.975L558.67,104.92L581.27,103.52L603.87,109.1L626.47,110.49L649.07,106.31L671.67,109.1L694.27,109.1L716.88,107.71" style="fill:none;stroke:#5A9BD4;stroke-width:1.25;stroke-dasharray:2.5,2.5" />
<path d="M61.458,205.02L58.075,199.16L64.84,199.16Z" style="fill:none;stroke:#5A9BD4;stroke-width:0.625" />
<path d="M84.058,210.6L80.675,204.74L87.441,204.74Z" style="fill:none;stroke:#5A9BD4;stroke-width:0.625" />
<path d="M106.66,216.18L103.28,210.32L110.04,210.32Z" style="fill:none;stroke:#5A9BD4;stroke-width:0.625" />
<path d="M129.26,202.24L125.88,196.38L132.64,196.38Z" style="fill:none;stroke:#5A9BD4;stroke-width:0.625" />
<path d="M151.86,210.6L148.48,204.74L155.24,204.74Z" style="fill:none;stroke:#5A9BD4;stroke-width:0.625" />
<path d="M174.46,182.72L171.08,176.86L177.84,176.86Z" style="fill:none;stroke:#5A9BD4;stroke-width:0.625" />
<path d="M197.06,146.47L193.68,140.61L200.44,140.61Z" style="fill:none;stroke:#5A9BD4;stroke-width:0.625" />
<path d="M219.66,126.95L216.28,121.09L223.04,121.09Z" style="fill:none;stroke:#5A9BD4;stroke-width:0.625" />
<path d="M242.26,119.98L238.88,114.12L245.65,114.12Z" style="fill:none;stroke:#5A9BD4;stroke-width:0.625" />
<path d="M264.86,113.01L261.48,107.15L268.25,107.15Z" style="fill:none;stroke:#5A9BD4;stroke-width:0.625" />
<path d="M287.46,113.01L284.08,107.15L290.85,107.15Z" style="fill:none;stroke:#5A9BD4;stroke-width:0.625" />
<path d="M310.06,104.64L306.68,98.781L313.45,98.781Z" style="fill:none;stroke:#5A9BD4;stroke-width:0.625" />
<path d="M332.66,100.46L329.28,94.599L336.05,94.599Z" style="fill:none;stroke:#5A9BD4;stroke-width:0.625" />
<path d="M355.27,96.275L351.88,90.416L358.65,90.416Z" style="fill:none;stroke:#5A9BD4;stroke-width:0.625" />
<path d="M377.87,92.093L374.48,86.233L381.25,86.233Z" style="fill:none;stroke:#5A9BD4;stroke-width:0.625" />
<path d="M400.47,92.093L397.08,86.233L403.85,86.233Z" style="fill:none;stroke:#5A9BD4;stroke-width:0.625" />
<path d="M423.07,93.487L419.68,87.627L426.45,87.627Z" style="fill:none;stroke:#5A9BD4;stroke-width:0.625" />
<path d="M445.67,94.881L442.28,89.022L449.05,89.022Z" style="fill:none;stroke:#5A9BD4;stroke-width:0.625" />
<path d="M468.27,92.093L464.89,86.233L471.65,86.233Z" style="fill:none;stroke:#5A9BD4;stroke-width:0.625" />
<path d="M490.87,92.093L487.49,86.233L494.25,86.233Z" style="fill:none;stroke:#5A9BD4;stroke-width:0.625" />
<path d="M513.47,90.698L510.09,84.839L516.85,84.839Z" style="fill:none;stroke:#5A9BD4;stroke-width:0.625" />
<path d="M536.07,94.881L532.69,89.022L539.45,89.022Z" style="fill:none;stroke:#5A9BD4;stroke-width:0.625" />
<path d="M558.67,108.82L555.29,102.96L562.05,102.96Z" style="fill:none;stroke:#5A9BD4;stroke-width:0.625" />
<path d="M581.27,107.43L577.89,101.57L584.65,101.57Z" style="fill:none;stroke:#5A9BD4;stroke-width:0.625" />
<path d="M603.87,113.01L600.49,107.15L607.25,107.15Z" style="fill:none;stroke:#5A9BD4;stroke-width:0.625" />
<path d="M626.47,114.4L623.09,108.54L629.86,108.54Z" style="fill:none;stroke:#5A9BD4;stroke-width:0.625" />
<path d="M649.07,110.22L645.69,104.36L652.46,104.36Z" style="fill:none;stroke:#5A9BD4;stroke-width:0.625" />
<path d="M671.67,113.01L668.29,107.15L675.06,107.15Z" style="fill:none;stroke:#5A9BD4;stroke-width:0.625" />
<path d="M694.27,113.01L690.89,107.15L697.66,107.15Z" style="fill:none;stroke:#5A9BD4;stroke-width:0.625" />
<path d="M716.88,111.61L713.49,105.75L720.26,105.75Z" style="fill:none;stroke:#5A9BD4;stroke-width:0.625" />
<path d="M61.458,199.72L84.058,195.54L106.66,195.54L129.26,297.32L151.86,195.54L174.46,178.81L197.06,145.35L219.66,131.41L242.26,117.46L264.86,113.28L287.46,114.68L310.06,103.52L332.66,100.73L355.27,95.157L377.87,92.369L400.47,95.157L423.07,96.552L445.67,99.34L468.27,97.946L490.87,97.946L513.47,100.73L536.07,96.552L558.67,103.52L581.27,107.71L603.87,106.31L626.47,106.31L649.07,113.28L671.67,110.49L694.27,110.49L716.88,110.49" style="fill:none;stroke:#FAA75B;stroke-width:1.25;stroke-dasharray:1.25,1.25" />
<path d="M59.248,197.51L63.667,201.93" style="fill:none;stroke:#FAA75B;stroke-width:0.625" />
<path d="M59.248,201.93L63.667,197.51" style="fill:none;stroke:#FAA75B;stroke-width:0.625" />
<path d="M81.848,193.33L86.268,197.75" style="fill:none;stroke:#FAA75B;stroke-width:0.625" />
<path d="M81.848,197.75L86.268,193.33" style="fill:none;stroke:#FAA75B;stroke-width:0.625" />
<path d="M104.45,193.33L108.87,197.75" style="fill:none;stroke:#FAA75B;stroke-width:0.625" />
<path d="M104.45,197.75L108.87,193.33" style="fill:none;stroke:#FAA75B;stroke-width:0.625" />
<path d="M127.05,295.11L131.47,299.53" style="fill:none;stroke:#FAA75B;stroke-width:0.625" />
<path d="M127.05,299.53L131.47,295.11" style="fill:none;stroke:#FAA75B;stroke-width:0.625" />
<path d="M149.65,193.33L154.07,197.75" style="fill:none;stroke:#FAA75B;stroke-width:0.625" />
<path d="M149.65,197.75L154.07,193.33" style="fill:none;stroke:#FAA75B;stroke-width:0.625" />
<path d="M172.25,176.6L176.67,181.02" style="fill:none;stroke:#FAA75B;stroke-width:0.625" />
<path d="M172.25,181.02L176.67,176.6" style="fill:none;stroke:#FAA75B;stroke-width:0.625" />
<path d="M194.85,143.14L199.27,147.56" style="fill:none;stroke:#FAA75B;stroke-width:0.625" />
<path d="M194.85,147.56L199.27,143.14" style="fill:none;stroke:#FAA75B;stroke-width:0.625" />
<path d="M217.45,129.2L221.87,133.62" style="fill:none;stroke:#FAA75B;stroke-width:0.625" />
<path d="M217.45,133.62L221.87,129.2" style="fill:none;stroke:#FAA75B;stroke-width:0.625" />
<path d="M240.05,115.26L244.47,119.67" style="fill:none;stroke:#FAA75B;stroke-width:0.625" />
<path d="M240.05,119.67L244.47,115.26" style="fill:none;stroke:#FAA75B;stroke-width:0.625" />
<path d="M262.65,111.07L267.07,115.49" style="fill:none;stroke:#FAA75B;stroke-width:0.625" />
<path d="M262.65,115.49L267.07,111.07" style="fill:none;stroke:#FAA75B;stroke-width:0.625" />
<path d="M285.25,112.47L289.67,116.89" style="fill:none;stroke:#FAA75B;stroke-width:0.625" />
<path d="M285.25,116.89L289.67,112.47" style="fill:none;stroke:#FAA75B;stroke-width:0.625" />
<path d="M307.85,101.31L312.27,105.73" style="fill:none;stroke:#FAA75B;stroke-width:0.625" />
<path d="M307.85,105.73L312.27,101.31" style="fill:none;stroke:#FAA75B;stroke-width:0.625" />
<path d="M330.46,98.525L334.87,102.94" style="fill:none;stroke:#FAA75B;stroke-width:0.625" />
<path d="M330.46,102.94L334.87,98.525" style="fill:none;stroke:#FAA75B;stroke-width:0.625" />
<path d="M353.06,92.948L357.48,97.367" style="fill:none;stroke:#FAA75B;stroke-width:0.625" />
<path d="M353.06,97.367L357.48,92.948" style="fill:none;stroke:#FAA75B;stroke-width:0.625" />
<path d="M375.66,90.159L380.08,94.579" style="fill:none;stroke:#FAA75B;stroke-width:0.625" />
<path d="M375.66,94.579L380.08,90.159" style="fill:none;stroke:#FAA75B;stroke-width:0.625" />
<path d="M398.26,92.948L402.68,97.367" style="fill:none;stroke:#FAA75B;stroke-width:0.625" />
<path d="M398.26,97.367L402.68,92.948" style="fill:none;stroke:#FAA75B;stroke-width:0.625" />
<path d="M420.86,94.342L425.28,98.761" style="fill:none;stroke:#FAA75B;stroke-width:0.625" />
<path d="M420.86,98.761L425.28,94.342" style="fill:none;stroke:#FAA75B;stroke-width:0.625" />
<path d="M443.46,97.13L447.88,101.55" style="fill:none;stroke:#FAA75B;stroke-width:0.625" />
<path d="M443.46,101.55L447.88,97.13" style="fill:none;stroke:#FAA75B;stroke-width:0.625" />
<path d="M466.06,95.736L470.48,100.16" style="fill:none;stroke:#FAA75B;stroke-width:0.625" />
<path d="M466.06,100.16L470.48,95.736" style="fill:none;stroke:#FAA75B;stroke-width:0.625" />
<path d="M488.66,95.736L493.08,100.16" style="fill:none;stroke:#FAA75B;stroke-width:0.625" />
<path d="M488.66,100.16L493.08,95.736" style="fill:none;stroke:#FAA75B;stroke-width:0.625" />
<path d="M511.26,98.525L515.68,102.94" style="fill:none;stroke:#FAA75B;stroke-width:0.625" />
<path d="M511.26,102.94L515.68,98.525" style="fill:none;stroke:#FAA75B;stroke-width:0.625" />
<path d="M533.86,94.342L538.28,98.761" style="fill:none;stroke:#FAA75B;stroke-width:0.625" />
<path d="M533.86,98.761L538.28,94.342" style="fill:none;stroke:#FAA75B;stroke-width:0.625" />
<path d="M556.46,101.31L560.88,105.73" style="fill:none;stroke:#FAA75B;stroke-width:0.625" />
<path d="M556.46,105.73L560.88,101.31" style="fill:none;stroke:#FAA75B;stroke-width:0.625" />
<path d="M579.06,105.5L583.48,109.92" style="fill:none;stroke:#FAA75B;stroke-width:0.625" />
<path d="M579.06,109.92L583.48,105.5" style="fill:none;stroke:#FAA75B;stroke-width:0.625" />
<path d="M601.66,104.1L606.08,108.52" style="fill:none;stroke:#FAA75B;stroke-width:0.625" />
<path d="M601.66,108.52L606.08,104.1" style="fill:none;stroke:#FAA75B;stroke-width:0.625" />
<path d="M624.26,104.1L628.68,108.52" style="fill:none;stroke:#FAA75B;stroke-width:0.625" />
<path d="M624.26,108.52L628.68,104.1" style="fill:none;stroke:#FAA75B;stroke-width:0.625" />
<path d="M646.86,111.07L651.28,115.49" style="fill:none;stroke:#FAA75B;stroke-width:0.625" />
<path d="M646.86,115.49L651.28,111.07" style="fill:none;stroke:#FAA75B;stroke-width:0.625" />
<path d="M669.46,108.28L673.88,112.7" style="fill:none;stroke:#FAA75B;stroke-width:0.625" />
<path d="M669.46,112.7L673.88,108.28" style="fill:none;stroke:#FAA75B;stroke-width:0.625" />
<path d="M692.06,108.28L696.48,112.7" style="fill:none;stroke:#FAA75B;stroke-width:0.625" />
<path d="M692.06,112.7L696.48,108.28" style="fill:none;stroke:#FAA75B;stroke-width:0.625" />
<path d="M714.67,108.28L719.08,112.7" style="fill:none;stroke:#FAA75B;stroke-width:0.625" />
<path d="M714.67,112.7L719.08,108.28" style="fill:none;stroke:#FAA75B;stroke-width:0.625" />
<path d="M695,513.37L720,513.37" style="fill:none;stroke:#F15A60;stroke-width:1.25" />
<path d="M710.62,513.37A3.125,3.125 0 1 1 704.38,513.37A3.125,3.125 0 1 1 710.62,513.37Z" style="fill:none;stroke:#F15A60;stroke-width:0.625" />
<text x="607.92" y="-506.29" transform="scale(1, -1)"
	style="font-family:Times;font-weight:normal;font-style:normal;font-size:12pt">SystemMutex</text>
<path d="M695,498.65L720,498.65" style="fill:none;stroke:#7AC36A;stroke-width:1.25;stroke-dasharray:7.5,2.5" />
<path d="M704.83,495.98L710.17,495.98L710.17,501.31L704.83,501.31Z" style="fill:none;stroke:#7AC36A;stroke-width:0.625" />
<text x="595.42" y="-491.56" transform="scale(1, -1)"
	style="font-family:Times;font-weight:normal;font-style:normal;font-size:12pt">SpinHLEMutex</text>
<path d="M695,483.93L720,483.93" style="fill:none;stroke:#5A9BD4;stroke-width:1.25;stroke-dasharray:2.5,2.5" />
<path d="M707.5,487.83L704.12,481.97L710.88,481.97Z" style="fill:none;stroke:#5A9BD4;stroke-width:0.625" />
<text x="578.81" y="-476.84" transform="scale(1, -1)"
	style="font-family:Times;font-weight:normal;font-style:normal;font-size:12pt">SpinRTMNoPause</text>
<path d="M695,469.2L720,469.2" style="fill:none;stroke:#FAA75B;stroke-width:1.25;stroke-dasharray:1.25,1.25" />
<path d="M705.29,466.99L709.71,471.41" style="fill:none;stroke:#FAA75B;stroke-width:0.625" />
<path d="M705.29,471.41L709.71,466.99" style="fill:none;stroke:#FAA75B;stroke-width:0.625" />
<text x="557.77" y="-462.12" transform="scale(1, -1)"
	style="font-family:Times;font-weight:normal;font-style:normal;font-size:12pt">SpinRTMWithLibrary</text>
</g>
</svg>
